<svg width="78.5516" height="118.733" viewBox="0 0 78.5516 118.733" fill="none" xmlns="http://www.w3.org/2000/svg">
<g id="Group 282">
<path id="Vector 22" opacity="0.22" d="M9.88534 94.4199L23.0221 80.6658C58.2935 86.7391 53.4763 91.6733 64.592 82.9879L55.5942 101.386C68.7507 103.648 70.1704 111.211 64.592 113.711C19.1392 130.073 -2.128 102.134 0.167707 91.3833C2.46341 80.633 7.51848 90.2919 9.88534 94.4199Z" fill="#74A487"/>
<g id="Group 15">
<g id="Vector 17">
<g filter="url(#filter0_i_0_23)">
<path d="M20.5847 79.4231C25.6221 75.0573 34.8805 55.2309 25.4542 40.299H55.175C59.7233 54.4866 65.4024 63.3591 64.7461 80.7664C64.0899 98.1738 15.5472 83.7889 20.5847 79.4231Z" fill="url(#paint0_linear_0_23)"/>
</g>
<path d="M20.5847 79.4231C25.6221 75.0573 34.8805 55.2309 25.4542 40.299H55.175C59.7233 54.4866 65.4024 63.3591 64.7461 80.7664C64.0899 98.1738 15.5472 83.7889 20.5847 79.4231Z" stroke="white" stroke-width="2.3875"/>
</g>
<g id="Vector 16">
<g filter="url(#filter1_i_0_23)">
<path d="M26.2307 51.7079C14.4832 54.5229 11.7001 41.0441 22.5658 39.0792L64.1328 39.8471C71.3809 46.0452 66.867 55.9238 55.698 50.9529C57.2932 58.3457 47.3105 59.4607 41.3693 52.8539C41.3053 56.3178 29.6059 56.5348 26.2307 51.7079Z" fill="url(#paint1_linear_0_23)"/>
</g>
<path d="M26.2307 51.7079C14.4832 54.5229 11.7001 41.0441 22.5658 39.0792L64.1328 39.8471C71.3809 46.0452 66.867 55.9238 55.698 50.9529C57.2932 58.3457 47.3105 59.4607 41.3693 52.8539C41.3053 56.3178 29.6059 56.5348 26.2307 51.7079Z" stroke="white" stroke-width="2.3875"/>
</g>
<path id="Vector 15" d="M7.3384 25.5251C7.84133 -6.36569 73.3554 0.81582 76.5695 28.853C79.7837 56.8901 6.83547 57.4159 7.3384 25.5251Z" fill="url(#paint2_linear_0_23)" stroke="white" stroke-width="2.3875"/>
</g>
</g>
<defs>
<filter id="filter0_i_0_23" x="17.8159" y="38.1988" width="48.1756" height="52.1514" filterUnits="userSpaceOnUse" color-interpolation-filters="sRGB">
<feFlood flood-opacity="0" result="BackgroundImageFix"/>
<feBlend mode="normal" in="SourceGraphic" in2="BackgroundImageFix" result="shape"/>
<feColorMatrix in="SourceAlpha" type="matrix" values="0 0 0 0 0 0 0 0 0 0 0 0 0 0 0 0 0 0 127 0" result="hardAlpha"/>
<feOffset dx="-4.53182" dy="-0.906364"/>
<feGaussianBlur stdDeviation="0.604243"/>
<feComposite in2="hardAlpha" operator="arithmetic" k2="-1" k3="1"/>
<feColorMatrix type="matrix" values="0 0 0 0 0.3125 0 0 0 0 1 0 0 0 0 1 0 0 0 0.1 0"/>
<feBlend mode="normal" in2="shape" result="effect1_innerShadow_0_23"/>
</filter>
<filter id="filter1_i_0_23" x="14.5539" y="36.675" width="54.2938" height="21.7329" filterUnits="userSpaceOnUse" color-interpolation-filters="sRGB">
<feFlood flood-opacity="0" result="BackgroundImageFix"/>
<feBlend mode="normal" in="SourceGraphic" in2="BackgroundImageFix" result="shape"/>
<feColorMatrix in="SourceAlpha" type="matrix" values="0 0 0 0 0 0 0 0 0 0 0 0 0 0 0 0 0 0 127 0" result="hardAlpha"/>
<feOffset dy="-2.11485"/>
<feGaussianBlur stdDeviation="0.604243"/>
<feComposite in2="hardAlpha" operator="arithmetic" k2="-1" k3="1"/>
<feColorMatrix type="matrix" values="0 0 0 0 0.451923 0 0 0 0 1 0 0 0 0 0.844712 0 0 0 0.2 0"/>
<feBlend mode="normal" in2="shape" result="effect1_innerShadow_0_23"/>
</filter>
<linearGradient id="paint0_linear_0_23" x1="42.4136" y1="61.1204" x2="55.1355" y2="86.6732" gradientUnits="userSpaceOnUse">
<stop stop-color="#FFF045"/>
<stop offset="1" stop-color="#FFCC00"/>
</linearGradient>
<linearGradient id="paint1_linear_0_23" x1="38.3376" y1="39.6963" x2="53.4806" y2="73.7392" gradientUnits="userSpaceOnUse">
<stop stop-color="#F2FFA6"/>
<stop offset="0.697483" stop-color="#EEFF00"/>
</linearGradient>
<linearGradient id="paint2_linear_0_23" x1="34.7298" y1="5.28117" x2="45.6946" y2="32.3153" gradientUnits="userSpaceOnUse">
<stop stop-color="#FFEF45"/>
<stop offset="0.350962" stop-color="#FC4503"/>
</linearGradient>
</defs>
</svg>
